<svg width="100" height="100" viewBox="0 0 51 51" fill="none" xmlns="http://www.w3.org/2000/svg">
<path fill-rule="evenodd" clip-rule="evenodd" d="M25.2856 50.5227C39.0931 50.5227 50.2856 39.3302 50.2856 25.5227C50.2856 11.7152 39.0931 0.522736 25.2856 0.522736C11.4781 0.522736 0.285645 11.7152 0.285645 25.5227C0.285645 39.3302 11.4781 50.5227 25.2856 50.5227ZM32.7856 20.5227C32.7856 22.5119 31.9955 24.4195 30.5889 25.826C29.1824 27.2326 27.2748 28.0227 25.2856 28.0227C23.2965 28.0227 21.3889 27.2326 19.9823 25.826C18.5758 24.4195 17.7856 22.5119 17.7856 20.5227C17.7856 18.5336 18.5758 16.626 19.9823 15.2194C21.3889 13.8129 23.2965 13.0227 25.2856 13.0227C27.2748 13.0227 29.1824 13.8129 30.5889 15.2194C31.9955 16.626 32.7856 18.5336 32.7856 20.5227ZM10.2856 38.0227C12.0307 35.6925 14.2951 33.8013 16.8989 32.4993C19.5028 31.1974 22.3744 30.5206 25.2856 30.5227C28.1969 30.5206 31.0685 31.1974 33.6724 32.4993C36.2762 33.8013 38.5406 35.6925 40.2856 38.0227C38.5406 40.353 36.2762 42.2442 33.6724 43.5462C31.0685 44.8481 28.1969 45.5249 25.2856 45.5227C22.3744 45.5249 19.5028 44.8481 16.8989 43.5462C14.2951 42.2442 12.0307 40.353 10.2856 38.0227Z" fill="black"/>
</svg>
