<svg width="20" height="20" viewBox="0 0 49 49" fill="none" xmlns="http://www.w3.org/2000/svg">
<g clip-path="url(#clip0_1_1093)">
<path d="M46.2754 36.8178H34.7629C33.8854 36.8178 33.1429 36.1653 33.0379 35.2953C32.8279 33.6228 32.1604 32.0478 31.1029 30.7353C30.5629 30.0603 30.5929 29.0928 31.1854 28.4628C33.0154 26.4978 35.6104 25.3653 38.3029 25.3653C43.6654 25.3653 48.0229 29.7228 48.0229 35.0853C48.0179 35.5459 47.8318 35.986 47.5047 36.3102C47.1776 36.6345 46.7359 36.8169 46.2754 36.8178ZM36.2029 33.3378H44.2879C43.5304 30.7428 41.1304 28.8378 38.2954 28.8378C37.0129 28.8378 35.7979 29.2128 34.7704 29.9253C35.4154 30.9828 35.8954 32.1303 36.2029 33.3378Z" fill="white"/>
<path d="M38.2954 26.4378C35.9779 26.4378 33.9229 24.8853 33.3004 22.6653C33.1729 22.2153 33.0979 21.7353 33.0979 21.2403C33.0979 18.3753 35.4304 16.0428 38.2954 16.0428C41.1604 16.0428 43.4929 18.3753 43.4929 21.2403C43.4929 21.7278 43.4254 22.2153 43.2904 22.6728C42.6679 24.8853 40.6054 26.4378 38.2954 26.4378ZM38.2954 19.5228C38.0309 19.5234 37.7702 19.5849 37.5333 19.7025C37.2965 19.8202 37.0899 19.9907 36.9296 20.2011C36.7693 20.4114 36.6596 20.6558 36.609 20.9154C36.5584 21.175 36.5683 21.4427 36.6379 21.6978C36.8479 22.4478 37.5304 22.9578 38.2954 22.9578C39.0604 22.9578 39.7429 22.4478 39.9454 21.7128C39.9904 21.5553 40.0129 21.3978 40.0129 21.2403C40.0129 20.2953 39.2404 19.5228 38.2954 19.5228ZM13.2754 36.8178H1.75538C0.795381 36.8178 0.0153809 36.0378 0.0153809 35.0778C0.0153809 29.7153 4.38038 25.3578 9.74288 25.3578C12.4354 25.3578 15.0229 26.4903 16.8604 28.4628C17.4529 29.1003 17.4829 30.0678 16.9354 30.7428C15.8745 32.0478 15.2038 33.6259 15.0004 35.2953C14.9473 35.7155 14.7428 36.1019 14.4253 36.3822C14.1077 36.6625 13.6989 36.8173 13.2754 36.8178ZM3.74288 33.3378H11.8354C12.1354 32.1378 12.6229 30.9828 13.2679 29.9253C12.2328 29.2145 11.006 28.8353 9.75038 28.8378C6.90038 28.8378 4.49288 30.7353 3.74288 33.3378Z" fill="white"/>
<path d="M9.73534 26.4378C7.41784 26.4378 5.36284 24.8853 4.74034 22.6653C4.61284 22.2153 4.53784 21.7353 4.53784 21.2403C4.53784 18.3753 6.87034 16.0428 9.73534 16.0428C12.6003 16.0428 14.9328 18.3753 14.9328 21.2403C14.9328 21.7278 14.8653 22.2153 14.7303 22.6728C14.1078 24.8853 12.0528 26.4378 9.73534 26.4378ZM9.73534 19.5228C9.47089 19.5234 9.21013 19.5849 8.97328 19.7025C8.73643 19.8202 8.52985 19.9907 8.36956 20.2011C8.20927 20.4114 8.09958 20.6558 8.04899 20.9154C7.9984 21.175 8.00827 21.4427 8.07784 21.6978C8.28784 22.4478 8.97034 22.9578 9.73534 22.9578C10.5003 22.9578 11.1828 22.4478 11.3853 21.7128C11.4596 21.4572 11.4733 21.1879 11.4252 20.9261C11.3772 20.6643 11.2688 20.4173 11.1086 20.2047C10.9485 19.9922 10.741 19.8198 10.5026 19.7015C10.2642 19.5831 10.0015 19.5219 9.73534 19.5228ZM34.8528 38.1678H13.1853C12.2253 38.1678 11.4453 37.3878 11.4453 36.4278C11.4453 35.8803 11.4828 35.3478 11.5503 34.8378C11.8278 32.5428 12.7578 30.3603 14.2278 28.5453C16.6278 25.5678 20.1903 23.8578 24.0153 23.8578C27.8328 23.8578 31.4028 25.5678 33.8028 28.5378C35.2728 30.3528 36.1953 32.5428 36.4803 34.8528C36.5478 35.3403 36.5778 35.8728 36.5778 36.4203C36.5808 36.6488 36.5384 36.8755 36.4531 37.0874C36.3677 37.2993 36.2411 37.4921 36.0806 37.6547C35.9201 37.8172 35.729 37.9463 35.5182 38.0344C35.3074 38.1225 35.0813 38.1679 34.8528 38.1678ZM15.0903 34.6878H32.9403C32.6553 33.2328 32.0328 31.8753 31.1028 30.7278C30.252 29.6686 29.174 28.814 27.9486 28.2272C26.7231 27.6404 25.3815 27.3365 24.0228 27.3378C21.2553 27.3378 18.6753 28.5753 16.9428 30.7278C15.9978 31.8903 15.3678 33.2478 15.0903 34.6878Z" fill="white"/>
<path d="M24.0154 24.0903C21.1504 24.0903 18.6079 22.1703 17.8279 19.4178C17.6613 18.8452 17.5779 18.2517 17.5804 17.6553C17.5804 14.1078 20.4679 11.2203 24.0154 11.2203C27.5629 11.2203 30.4504 14.1078 30.4504 17.6553C30.4504 18.2628 30.3679 18.8628 30.1954 19.4328C29.4229 22.1703 26.8804 24.0903 24.0154 24.0903ZM24.0154 14.7078C22.3879 14.7078 21.0604 16.0353 21.0604 17.6628C21.062 18.4461 21.3738 19.1968 21.9276 19.7506C22.4815 20.3044 23.2321 20.6162 24.0154 20.6178C25.3279 20.6178 26.4979 19.7403 26.8504 18.4803C26.9254 18.2103 26.9629 17.9403 26.9629 17.6628C26.9643 17.275 26.889 16.8908 26.7415 16.5321C26.5939 16.1734 26.377 15.8475 26.1031 15.5729C25.8292 15.2983 25.5038 15.0806 25.1455 14.9321C24.7873 14.7836 24.4032 14.7074 24.0154 14.7078Z" fill="white"/>
</g>
<defs>
<clipPath id="clip0_1_1093">
<rect width="48" height="48" fill="white" transform="translate(0.0153809 0.69783)"/>
</clipPath>
</defs>
</svg>
